<svg width="32" height="32" viewBox="0 0 32 32" fill="none" xmlns="http://www.w3.org/2000/svg">
<path d="M10.819 9.48148L3.80949 10.4815L11.1238 4.74074L16 0L20.8762 4.74074L28.1904 10.4815L21.1809 9.48148L30.6285 16.4074L22.4 15.4074L31.8476 22.3333L23.6191 21.3333L32 28.4444L17.219 27.4444C17.219 27.4444 15.7331 27.4444 14.781 27.4444L0 28.4444L8.38095 21.3333L0.152381 22.3333L9.59996 15.4074L1.37139 16.4074L10.819 9.48148Z" fill="#FBB606"/>
<path fill-rule="evenodd" clip-rule="evenodd" d="M14.781 30.8148C14.781 30.8148 14.781 27.9796 14.781 27.4444H17.219V30.8148C17.219 31.4694 16.6733 32 16 32C15.3267 32 14.781 31.4694 14.781 30.8148Z" fill="#FBB606"/>
</svg>
