<svg width="24" height="25" viewBox="0 0 24 25" fill="none" xmlns="http://www.w3.org/2000/svg">
<path d="M21.4286 0.5H2.57143C1.88944 0.5 1.23539 0.770918 0.753154 1.25315C0.270918 1.73539 0 2.38944 0 3.07143L0 21.9286C0 22.6106 0.270918 23.2646 0.753154 23.7468C1.23539 24.2291 1.88944 24.5 2.57143 24.5H9.92411V16.3405H6.54911V12.5H9.92411V9.57286C9.92411 6.24339 11.9063 4.40429 14.9421 4.40429C16.3961 4.40429 17.9164 4.66357 17.9164 4.66357V7.93143H16.2413C14.5907 7.93143 14.0759 8.95571 14.0759 10.0063V12.5H17.7605L17.1712 16.3405H14.0759V24.5H21.4286C22.1106 24.5 22.7646 24.2291 23.2468 23.7468C23.7291 23.2646 24 22.6106 24 21.9286V3.07143C24 2.38944 23.7291 1.73539 23.2468 1.25315C22.7646 0.770918 22.1106 0.5 21.4286 0.5Z" fill="#EEEEEE"/>
</svg>
