<svg width="24" height="25" viewBox="0 0 24 25" fill="none" xmlns="http://www.w3.org/2000/svg">
<path d="M12 9.6425C11.4349 9.64271 10.8825 9.81048 10.4128 10.1246C9.94298 10.4387 9.57689 10.8851 9.36078 11.4072C9.14466 11.9294 9.08823 12.5039 9.19861 13.0581C9.30899 13.6124 9.58122 14.1214 9.98089 14.5209C10.3806 14.9205 10.8897 15.1925 11.444 15.3027C11.9983 15.4128 12.5728 15.3562 13.0948 15.1399C13.6169 14.9236 14.0631 14.5573 14.3771 14.0874C14.691 13.6175 14.8586 13.0651 14.8586 12.5C14.858 11.7421 14.5566 11.0155 14.0206 10.4797C13.4846 9.9439 12.7579 9.64278 12 9.6425ZM18.6809 7.44607C18.5354 7.07742 18.3158 6.74258 18.0355 6.46234C17.7553 6.1821 17.4204 5.96243 17.0518 5.81696C15.9268 5.37286 13.2482 5.4725 12 5.4725C10.7518 5.4725 8.07589 5.36911 6.94768 5.81696C6.57902 5.96243 6.24419 6.1821 5.96395 6.46234C5.68371 6.74258 5.46404 7.07742 5.31857 7.44607C4.875 8.57107 4.97411 11.2523 4.97411 12.4995C4.97411 13.7466 4.875 16.4246 5.32071 17.5534C5.46618 17.922 5.68585 18.2569 5.96609 18.5371C6.24633 18.8174 6.58117 19.037 6.94982 19.1825C8.07482 19.6266 10.7534 19.527 12.0021 19.527C13.2509 19.527 15.9257 19.6304 17.0539 19.1825C17.4226 19.037 17.7574 18.8174 18.0377 18.5371C18.3179 18.2569 18.5376 17.922 18.683 17.5534C19.1304 16.4284 19.0275 13.7471 19.0275 12.5C19.0275 11.2529 19.1304 8.57536 18.683 7.44661L18.6809 7.44607ZM12 16.8929C11.1312 16.8929 10.2819 16.6352 9.55946 16.1525C8.83706 15.6698 8.27401 14.9838 7.94153 14.1811C7.60904 13.3784 7.52205 12.4951 7.69155 11.643C7.86105 10.7909 8.27943 10.0081 8.89378 9.39378C9.50813 8.77943 10.2909 8.36105 11.143 8.19155C11.9951 8.02205 12.8784 8.10904 13.6811 8.44153C14.4838 8.77401 15.1698 9.33706 15.6525 10.0595C16.1352 10.7819 16.3929 11.6312 16.3929 12.5C16.3936 13.0771 16.2804 13.6486 16.0599 14.1819C15.8394 14.7152 15.5158 15.1997 15.1078 15.6078C14.6997 16.0158 14.2152 16.3394 13.6819 16.5599C13.1486 16.7804 12.5771 16.8936 12 16.8929ZM16.5739 8.94821C16.3711 8.94832 16.1728 8.88827 16.0041 8.77567C15.8354 8.66307 15.7039 8.50297 15.6262 8.31562C15.5486 8.12827 15.5282 7.92208 15.5677 7.72315C15.6072 7.52421 15.7048 7.34146 15.8482 7.19801C15.9915 7.05456 16.1742 6.95685 16.3732 6.91724C16.5721 6.87763 16.7783 6.89791 16.9657 6.9755C17.153 7.05309 17.3132 7.18451 17.4259 7.35314C17.5386 7.52177 17.5988 7.72004 17.5988 7.92286C17.5993 8.05754 17.5733 8.19101 17.5221 8.31562C17.471 8.44022 17.3958 8.5535 17.3008 8.64896C17.2058 8.74442 17.0928 8.82019 16.9685 8.87191C16.8441 8.92363 16.7108 8.95029 16.5761 8.95036L16.5739 8.94821ZM21.4286 0.5H2.57143C1.88944 0.5 1.23539 0.770918 0.753154 1.25315C0.270918 1.73539 0 2.38944 0 3.07143L0 21.9286C0 22.6106 0.270918 23.2646 0.753154 23.7468C1.23539 24.2291 1.88944 24.5 2.57143 24.5H21.4286C22.1106 24.5 22.7646 24.2291 23.2468 23.7468C23.7291 23.2646 24 22.6106 24 21.9286V3.07143C24 2.38944 23.7291 1.73539 23.2468 1.25315C22.7646 0.770918 22.1106 0.5 21.4286 0.5ZM20.5114 16.0357C20.4423 17.4088 20.1289 18.6254 19.1266 19.625C18.1243 20.6246 16.9088 20.9445 15.5373 21.0098C14.1225 21.0896 9.88071 21.0896 8.46589 21.0098C7.09286 20.9407 5.88054 20.6268 4.87661 19.625C3.87268 18.6232 3.55714 17.4061 3.49179 16.0357C3.41196 14.6204 3.41196 10.378 3.49179 8.96429C3.56089 7.59125 3.87054 6.37464 4.87661 5.375C5.88268 4.37536 7.09821 4.05929 8.46589 3.99393C9.88071 3.91411 14.1225 3.91411 15.5373 3.99393C16.9104 4.06304 18.1264 4.37696 19.1266 5.37875C20.1268 6.38054 20.4461 7.59768 20.5114 8.97071C20.5913 10.3807 20.5913 14.6193 20.5114 16.0357Z" fill="#EEEEEE"/>
</svg>
