<svg width="24" height="24" viewBox="0 0 24 24" fill="none" xmlns="http://www.w3.org/2000/svg">
<path fill-rule="evenodd" clip-rule="evenodd" d="M3 0C1.34315 0 0 1.34315 0 3V21C0 22.6569 1.34315 24 3 24H21C22.6569 24 24 22.6569 24 21V3C24 1.34315 22.6569 0 21 0H3ZM3 12C3 7.03186 7.03186 3 12 3C16.9681 3 21 7.03186 21 12C21 16.9681 16.9681 21 12 21C7.03186 21 3 16.9681 3 12ZM15.2661 16.1117C15.4077 16.1952 15.502 16.2423 15.6544 16.2423C15.9484 16.2423 16.206 16.0137 16.206 15.6835C16.206 15.3532 16.0754 15.2262 15.854 15.0847C13.2629 13.5351 10.2254 13.477 7.25323 14.1339C6.98105 14.1919 6.75968 14.3698 6.75968 14.7435C6.75968 15.0375 6.98105 15.3169 7.33306 15.3169C7.41571 15.3169 7.54758 15.2811 7.66894 15.2482C7.70213 15.2392 7.73453 15.2304 7.76492 15.2226C10.3669 14.6891 13.0016 14.7472 15.2661 16.1117ZM16.2326 13.7353C16.3472 13.7976 16.4652 13.8617 16.6306 13.8617C17.0262 13.8617 17.331 13.546 17.3347 13.154C17.3347 12.8383 17.2185 12.6133 16.9246 12.4391C15.1319 11.3722 12.8565 10.7879 10.5012 10.7879C8.99153 10.7879 7.96089 10.9984 6.95202 11.2815C6.57823 11.3867 6.38952 11.6444 6.38952 12.0327C6.38952 12.421 6.70524 12.7367 7.09355 12.7367C7.21366 12.7367 7.29648 12.7112 7.40119 12.6789C7.43885 12.6673 7.47933 12.6548 7.5254 12.6423C10.5339 11.8258 13.9161 12.3665 16.1843 13.7093C16.2004 13.7178 16.2165 13.7265 16.2326 13.7353ZM17.2875 10.9548C17.4508 11.0492 17.5669 11.0964 17.7556 11.0964C18.1984 11.0964 18.5976 10.7444 18.5976 10.2508C18.5976 9.81895 18.4125 9.59395 18.1294 9.43064C16.1008 8.24758 13.3246 7.69597 10.6754 7.69597C9.11855 7.69597 7.68871 7.87379 6.41129 8.24758C6.08468 8.34194 5.77984 8.62137 5.77984 9.11492C5.77984 9.59758 6.14637 9.97137 6.6254 9.97137C6.77067 9.97137 6.90837 9.93099 7.02587 9.89653C7.04926 9.88967 7.07186 9.88304 7.09355 9.87702C10.0839 9.04234 14.7036 9.4125 17.2875 10.9548Z" fill="#EEEEEE"/>
</svg>
