<svg width="24" height="25" viewBox="0 0 24 25" fill="none" xmlns="http://www.w3.org/2000/svg">
<path d="M10.0071 9.6125L15.1071 12.5107L10.0071 15.4089V9.6125ZM24 3.07143V21.9286C24 23.3482 22.8482 24.5 21.4286 24.5H2.57143C1.15179 24.5 0 23.3482 0 21.9286V3.07143C0 1.65179 1.15179 0.5 2.57143 0.5H21.4286C22.8482 0.5 24 1.65179 24 3.07143ZM21.75 12.5161C21.75 12.5161 21.75 9.32321 21.3429 7.79107C21.1179 6.94464 20.4589 6.28036 19.6179 6.05536C18.1018 5.64286 12 5.64286 12 5.64286C12 5.64286 5.89821 5.64286 4.38214 6.05536C3.54107 6.28036 2.88214 6.94464 2.65714 7.79107C2.25 9.31786 2.25 12.5161 2.25 12.5161C2.25 12.5161 2.25 15.7089 2.65714 17.2411C2.88214 18.0875 3.54107 18.725 4.38214 18.95C5.89821 19.3571 12 19.3571 12 19.3571C12 19.3571 18.1018 19.3571 19.6179 18.9446C20.4589 18.7196 21.1179 18.0821 21.3429 17.2357C21.75 15.7089 21.75 12.5161 21.75 12.5161Z" fill="#EEEEEE"/>
</svg>
